<svg width="175" height="57" viewBox="0 0 175 57" fill="none" xmlns="http://www.w3.org/2000/svg">
<path d="M43.6312 20.027H22.9261V26.0154H37.6115C36.8839 34.3976 29.7181 37.9955 22.9509 37.9955C20.8071 38.0046 18.6829 37.5974 16.7023 36.7976C14.7217 35.9978 12.9244 34.8215 11.4153 33.3372C9.90626 31.8529 8.71568 30.0905 7.91308 28.1528C7.11048 26.2152 6.71194 24.141 6.74074 22.0516C6.74074 12.9859 13.9412 6.00615 22.9708 6.00615C29.9364 6.00615 34.041 10.3343 34.041 10.3343L38.3408 5.99165C38.3408 5.99165 32.8173 0 22.7458 0C9.92092 0 0 10.5503 0 21.9452C0 33.1112 9.33218 44 23.07 44C35.154 44 44 35.9305 44 23.9988C44 21.4809 43.6246 20.027 43.6246 20.027H43.6312Z" fill="#D9D9D9"/>
<path d="M60.0135 16.0016C51.8501 16.0016 46 22.4119 46 29.8851C46 37.4716 51.6721 44 60.1088 44C67.7448 44 74 38.1386 74 30.0479C74 20.7922 66.7231 16 60.0135 16V16.0016ZM60.0929 21.5007C64.1063 21.5007 67.91 24.761 67.91 30.0128C67.91 35.1513 64.1222 38.5056 60.0739 38.5056C55.6252 38.5056 52.1297 34.9278 52.1297 29.9713C52.1297 25.12 55.5934 21.5007 60.1057 21.5007H60.0929Z" fill="#D9D9D9"/>
<path d="M91.514 16.0016C83.059 16.0016 77 22.4119 77 29.8851C77 37.4716 82.8747 44 91.6127 44C99.5214 44 106 38.1386 106 30.0479C106 20.7922 98.4633 16 91.514 16V16.0016ZM91.5963 21.5007C95.753 21.5007 99.6925 24.761 99.6925 30.0128C99.6925 35.1513 95.7695 38.5056 91.5765 38.5056C86.9689 38.5056 83.3486 34.9278 83.3486 29.9713C83.3486 25.12 86.936 21.5007 91.6094 21.5007H91.5963Z" fill="#D9D9D9"/>
<path d="M121.521 16C113.95 16 108 22.6587 108 30.1331C108 38.6459 114.898 44.2921 121.389 44.2921C125.403 44.2921 127.538 42.6911 129.095 40.8547V43.644C129.095 48.5243 126.144 51.4473 121.691 51.4473C117.389 51.4473 115.231 48.2341 114.467 46.4122L109.053 48.6694C110.973 52.7484 114.839 57 121.736 57C129.281 57 135 52.239 135 42.2526V16.8497H129.118V19.2455C127.304 17.2785 124.818 16 121.524 16H121.521ZM122.067 21.5462C125.778 21.5462 129.59 24.7288 129.59 30.1638C129.59 35.689 125.785 38.733 121.985 38.733C117.949 38.733 114.194 35.444 114.194 30.2154C114.194 24.7853 118.095 21.5462 122.067 21.5462Z" fill="#D9D9D9"/>
<path d="M162.232 16C155.04 16 149 21.6437 149 29.9657C149 38.7756 155.732 44 162.906 44C168.909 44 172.608 40.7637 174.791 37.8621L169.887 34.6449C168.614 36.5899 166.486 38.495 162.937 38.495C158.949 38.495 157.116 36.3428 155.979 34.2543L175 26.4743L174.03 24.1945C172.193 19.7306 167.905 16 162.232 16ZM162.479 21.379C165.072 21.379 166.936 22.7373 167.728 24.3667L155.025 29.6006C154.475 25.548 158.372 21.379 162.463 21.379H162.479Z" fill="#D9D9D9"/>
<path d="M140 44H146V1H140V44Z" fill="#D9D9D9"/>
</svg>
