<svg width="110" height="12" viewBox="0 0 110 12" fill="none" xmlns="http://www.w3.org/2000/svg">
<path d="M110 0.00499376V11.99H100.964V0.00998752L110 0.00499376ZM106.947 2.88889H104.143V9.22597H106.947V2.88889Z" fill="url(#paint0_linear_120_983)"/>
<path d="M110 0.00499376V11.99H100.964V0.00998752L110 0.00499376ZM106.947 2.88889H104.143V9.22597H106.947V2.88889Z" fill="white"/>
<path d="M53.7247 8.7166L50.9207 8.69663L50.9157 11.9925H47.7338L47.7313 0.00749064H56.8719V11.985L53.7073 12L53.7247 8.7166ZM50.9132 2.81398V5.85268H53.7148V2.81398H50.9132Z" fill="url(#paint1_linear_120_983)"/>
<path d="M35.1329 0.00499376V11.99H26.042V0.00499376H35.1329ZM32.0405 2.81398H29.1767V9.21598H32.0405V2.81398Z" fill="url(#paint2_linear_120_983)"/>
<path d="M77.9496 7.30836H72.0084L72.0108 9.21348L77.9446 9.21099L77.9421 11.99H68.8936V0.00499376L77.9446 0.00998752V2.81648L72.0084 2.81398L72.0208 4.61423L77.9272 4.60924L77.9496 7.30836Z" fill="url(#paint3_linear_120_983)"/>
<path d="M46.3193 2.60924L45.7177 3.02122L45.7227 11.99L37.2508 11.9925L37.2583 3.00874L36.6393 2.62672L36.6567 0.00749064L40.3408 0L40.3482 9.201L42.6104 9.1985L42.6079 0.00499376L46.2969 0.00249688L46.3193 2.60924Z" fill="url(#paint4_linear_120_983)"/>
<path d="M7.83051 2.81648L7.83299 11.985L5.29491 11.995L5.2974 3.02622L4.70576 2.63171L4.72068 0.00249688L13.7892 0.00998752V11.9875L10.6768 11.99V2.81898L7.83051 2.81648Z" fill="url(#paint5_linear_120_983)"/>
<path d="M18.383 2.81648V11.9875H15.8624L15.8698 3.01623L15.2757 2.62921L15.2956 0.00499376H24.3392V11.9875L21.2443 11.99L21.2468 2.81648H18.383Z" fill="url(#paint6_linear_120_983)"/>
<path d="M94.8138 6.56679L94.8212 9.30836L93.8841 9.39326L93.8866 11.9925L90.7668 11.985L90.7643 9.33833L85.4271 9.34082L86.6725 0.00249688L89.6233 0L88.7656 6.55431L90.7742 6.54931L90.7693 0.0124844L93.8866 0.00998752L93.8841 6.51436L94.8138 6.56679Z" fill="url(#paint7_linear_120_983)"/>
<path d="M94.8138 6.56679L94.8212 9.30836L93.8841 9.39326L93.8866 11.9925L90.7668 11.985L90.7643 9.33833L85.4271 9.34082L86.6725 0.00249688L89.6233 0L88.7656 6.55431L90.7742 6.54931L90.7693 0.0124844L93.8866 0.00998752L93.8841 6.51436L94.8138 6.56679Z" fill="white"/>
<path d="M64.4762 11.9725L61.3191 12V2.82147L58.3311 2.81648L58.3236 0.00499376L67.4592 0.00998752L67.4567 2.80649L64.4762 2.81898V11.9725Z" fill="url(#paint8_linear_120_983)"/>
<path d="M3.26644 0.00499376H0V11.99H3.26644V0.00499376Z" fill="url(#paint9_linear_120_983)"/>
<path d="M99.3455 9.18102H96.1363V11.99H99.3455V9.18102Z" fill="url(#paint10_linear_120_983)"/>
<path d="M99.3455 9.18102H96.1363V11.99H99.3455V9.18102Z" fill="white"/>
<defs>
<linearGradient id="paint0_linear_120_983" x1="0" y1="6" x2="110" y2="6" gradientUnits="userSpaceOnUse">
<stop stop-color="#F04A8D"/>
<stop offset="1" stop-color="#F8942E"/>
</linearGradient>
<linearGradient id="paint1_linear_120_983" x1="0" y1="6" x2="110" y2="6" gradientUnits="userSpaceOnUse">
<stop stop-color="#F04A8D"/>
<stop offset="0.591346" stop-color="#F8942E"/>
</linearGradient>
<linearGradient id="paint2_linear_120_983" x1="0" y1="6" x2="110" y2="6" gradientUnits="userSpaceOnUse">
<stop stop-color="#F04A8D"/>
<stop offset="0.591346" stop-color="#F8942E"/>
</linearGradient>
<linearGradient id="paint3_linear_120_983" x1="0" y1="6" x2="110" y2="6" gradientUnits="userSpaceOnUse">
<stop stop-color="#F04A8D"/>
<stop offset="0.591346" stop-color="#F8942E"/>
</linearGradient>
<linearGradient id="paint4_linear_120_983" x1="0" y1="6" x2="110" y2="6" gradientUnits="userSpaceOnUse">
<stop stop-color="#F04A8D"/>
<stop offset="0.591346" stop-color="#F8942E"/>
</linearGradient>
<linearGradient id="paint5_linear_120_983" x1="0" y1="6" x2="110" y2="6" gradientUnits="userSpaceOnUse">
<stop stop-color="#F04A8D"/>
<stop offset="0.591346" stop-color="#F8942E"/>
</linearGradient>
<linearGradient id="paint6_linear_120_983" x1="0" y1="6" x2="110" y2="6" gradientUnits="userSpaceOnUse">
<stop stop-color="#F04A8D"/>
<stop offset="0.591346" stop-color="#F8942E"/>
</linearGradient>
<linearGradient id="paint7_linear_120_983" x1="0" y1="6" x2="110" y2="6" gradientUnits="userSpaceOnUse">
<stop stop-color="#F04A8D"/>
<stop offset="1" stop-color="#F8942E"/>
</linearGradient>
<linearGradient id="paint8_linear_120_983" x1="0" y1="6" x2="110" y2="6" gradientUnits="userSpaceOnUse">
<stop stop-color="#F04A8D"/>
<stop offset="0.591346" stop-color="#F8942E"/>
</linearGradient>
<linearGradient id="paint9_linear_120_983" x1="0" y1="6" x2="110" y2="6" gradientUnits="userSpaceOnUse">
<stop stop-color="#F04A8D"/>
<stop offset="0.591346" stop-color="#F8942E"/>
</linearGradient>
<linearGradient id="paint10_linear_120_983" x1="0" y1="6" x2="110" y2="6" gradientUnits="userSpaceOnUse">
<stop stop-color="#F04A8D"/>
<stop offset="1" stop-color="#F8942E"/>
</linearGradient>
</defs>
</svg>
